# xmcd
#
# Track frame offsets: 
#        150
#        9313
#        15453
#        33328
#        41743
#        48183
#        61340
#        67650
#        77158
#        84300
#        93503
#        103860
#        114857
#        139557
#        167564
#        201182
#        207506
#        235130
#        264857
#        301215
#        307645
#        317985
#        324515
#        334052
#
# Disc length: 4598 seconds
#
# Revision: 8
# Processed by: cddbd v1.5.2PL0 Copyright (c) Steve Scherf et al.
# Submitted via: ExactAudioCopy v1.0b3
#
DISCID=2b11f418
DTITLE=Frédéric Chopin - Collection Historique - Edward Kilenyi - Anat
DTITLE=ole Kitain
DYEAR=1939
DGENRE=Romantique
TTITLE0=Étude en ut majeur op. 10 n° 1 - allegro (Edward Kilenyi 1936-
TTITLE0=1939)
TTITLE1=Étude en la mineur op. 10 n° 2 - allegro (Edward Kilenyi 1936-
TTITLE1=1939)
TTITLE2=Étude en mi majeur op. 10 n° 3 - lento ma non troppo (Edward K
TTITLE2=ilenyi 1936-1939)
TTITLE3=Étude en ut dièse mineur op. 10 n° 4 - presto (Edward Kilenyi 
TTITLE3=1936-1939)
TTITLE4=Étude en sol bémol majeur op. 10 n° 5 - vivace (Edward Kilenyi
TTITLE4=1936-1939)
TTITLE5=Étude en mi bémol mineur op. 10 n° 6 - andante (Edward Kilenyi
TTITLE5=1936-1939)
TTITLE6=Étude en ut majeur op. 10 n° 7 - vivace (Edward Kilenyi 1936-1
TTITLE6=939)
TTITLE7=Étude en fa majeur op. 10 n° 8 - andante (Edward Kilenyi 1936-
TTITLE7=1939)
TTITLE8=Étude en fa mineur op. 10 n° 9 - allegro molto agitato (Edward
TTITLE8=Kilenyi 1936-1939)
TTITLE9=Étude en la bémol majeur op. 10 n° 10 - vivace assai (Edward K
TTITLE9=ilenyi 1936-1939)
TTITLE10=Étude en mi bémol majeur op. 10 n° 11 - allegretto (Edward Ki
TTITLE10=lenyi 1936-1939)
TTITLE11=Étude en ut mineur op. 10 n° 12 - allegro con fuoco (Edward K
TTITLE11=ilenyi 1936-1939)
TTITLE12=Sonate pour piano en si b m op. 35 n° 2 « Marche Funèbre »  –
TTITLE12= Grave - Doppio Movimento
TTITLE13=Sonate pour piano en si b m op. 35 n° 2 « Marche Funèbre »  –
TTITLE13= Scherzo (E. Kilenyi 1936-1939)
TTITLE14=Sonate pour piano en si bémol mineur op. 35 n° 2 « Marche Fun
TTITLE14=èbre »  – Marche Funèbre
TTITLE15=Sonate pour piano en si b m op. 35 n° 2 « Marche Funèbre »  –
TTITLE15= Presto (Edward Kilenyi 1936-1939)
TTITLE16=Ballade n° 2 en fa majeur op. 38 (Anatole Kitain 1936-1939)
TTITLE17=Ballade n° 3 en la bémol majeur op. 47 (Anatole Kitain 1936-1
TTITLE17=939)
TTITLE18=Scherzo n° 1 en si mineur op. 20 (Anatole Kitain 1936-1939)
TTITLE19=Étude en sol bémol majeur op. 10 n° 5 - vivace (Anatole Kitai
TTITLE19=n 1936-1939)
TTITLE20=Étude en mi bémol mineur op. 10 n° 6 - andante (Anatole Kitai
TTITLE20=n 1936-1939)
TTITLE21=Étude en ut majeur op. 10 n° 7 - vivace (Anatole Kitain 1936-
TTITLE21=1939)
TTITLE22=Étude en fa majeur op. 10 n° 8 - andante (Anatole Kitain 1936
TTITLE22=1939)
TTITLE23=Étude en ut mineur op. 10 n° 12 - allegro con fuoco (Anatole 
TTITLE23=Kitain 1936-1939)
EXTD=
EXTT0=
EXTT1=
EXTT2=
EXTT3=
EXTT4=
EXTT5=
EXTT6=
EXTT7=
EXTT8=
EXTT9=
EXTT10=
EXTT11=
EXTT12=
EXTT13=
EXTT14=
EXTT15=
EXTT16=
EXTT17=
EXTT18=
EXTT19=
EXTT20=
EXTT21=
EXTT22=
EXTT23=
PLAYORDER=
